<?xml version="1.0" encoding="utf-8"?>
<!-- Generator: Adobe Illustrator 19.2.1, SVG Export Plug-In . SVG Version: 6.00 Build 0)  -->
<svg version="1.1" xmlns="http://www.w3.org/2000/svg" xmlns:xlink="http://www.w3.org/1999/xlink" x="0px" y="0px"
	 viewBox="0 0 394.7 375.4" style="enable-background:new 0 0 394.7 375.4;" xml:space="preserve">
<style type="text/css">
	.st0{fill:#082534;stroke:#082534;stroke-width:10;stroke-miterlimit:10;}
	.st1{fill:#E2CD97;stroke:#E2CD97;stroke-miterlimit:10;}
	.st2{fill:none;stroke:#082534;stroke-width:10;stroke-miterlimit:10;}
</style>
<g id="blackfull">
	<polygon class="st0" points="305.4,355.4 197.1,298.1 88.5,354.8 109.6,234.1 22.1,148.3 143.4,131 197.9,21.3 251.8,131.3 
		373.1,149.3 285.1,234.6 	"/>
</g>
<g id="quarter_full">
	<path class="st1" d="M142.8,329.5V130.8c0-0.6,0.1-1.1,0.2-1.5l-0.6,1.2l-123.6,18l89.5,87.2L87.1,358.8L142.8,329.5z"/>
</g>
<g id="half_full">
	<polygon class="st1" points="197.4,300.8 197.4,16.9 142.5,128.1 17.4,146.2 107.9,234.5 86.5,359 	"/>
</g>
<g id="three_quarter_full">
	<path class="st1" d="M252.1,130.1c0-0.4,0-0.8,0.1-1.2L197.8,18.6l-55.3,112l-123.6,18l89.4,87.2L87.2,358.8l110.5-58.1l54.3,28.6
		V130.1z"/>
</g>
<g id="Layer_6">
	<polygon class="st1" points="197,17.6 252.7,130.3 377.1,148.4 287.1,236.2 308.3,360.1 197,301.6 85.7,360.1 107,236.2 
		16.9,148.4 141.4,130.3 	"/>
</g>
<g id="outline2">
	<polygon class="st2" points="197.4,11.3 255,128.1 384,146.9 290.7,237.8 312.7,366.3 197.4,305.6 82,366.3 104.1,237.8 
		10.7,146.9 139.7,128.1 	"/>
</g>
</svg>
