<?xml version="1.0" encoding="iso-8859-1"?>
<!-- Generator: Adobe Illustrator 19.1.0, SVG Export Plug-In . SVG Version: 6.00 Build 0)  -->
<svg version="1.1" xmlns="http://www.w3.org/2000/svg" xmlns:xlink="http://www.w3.org/1999/xlink" x="0px" y="0px"
	 viewBox="0 0 480 640" style="enable-background:new 0 0 480 640;" xml:space="preserve">
<g id="blackfull" style="display:none;">
	<polygon style="display:inline;fill:#082534;stroke:#082534;stroke-width:10;stroke-miterlimit:10;" points="341.974,400.929 
		233.683,343.6 125.064,400.307 146.124,279.6 58.627,193.821 179.934,176.549 234.476,66.828 288.389,176.86 409.595,194.828 
		321.607,280.103 	"/>
</g>
<g id="quarter_full">
	<path style="fill:#E2CD97;stroke:#E2CD97;stroke-miterlimit:10;" d="M179.333,375.031V176.333c0-0.557,0.079-1.063,0.216-1.524
		l-0.588,1.192L55.333,193.965l89.458,87.2l-21.118,123.128L179.333,375.031z"/>
</g>
<g id="half_full" style="display:none;">
	<polygon style="display:inline;fill:#E2CD97;stroke:#E2CD97;stroke-miterlimit:10;" points="233.904,346.309 233.904,62.408 
		179.021,173.613 53.951,191.786 144.453,280.004 123.088,404.568 	"/>
</g>
<g id="three_quarter_full" style="display:none;">
	<path style="display:inline;fill:#E2CD97;stroke:#E2CD97;stroke-miterlimit:10;" d="M288.667,175.667
		c0-0.432,0.048-0.833,0.132-1.207L234.336,64.106l-55.273,111.996L55.468,194.061l89.434,87.177L123.79,404.333l110.546-58.118
		l54.33,28.563V175.667z"/>
</g>
<g id="Layer_6" style="display:none;">
	<polygon style="display:inline;fill:#E2CD97;stroke:#E2CD97;stroke-miterlimit:10;" points="233.57,63.104 289.219,175.861 
		413.654,193.942 323.612,281.712 344.868,405.644 233.57,347.131 122.272,405.644 143.528,281.712 53.486,193.942 177.921,175.861 
			"/>
</g>
<g id="outline2">
	<polygon style="fill:none;stroke:#082534;stroke-width:20;stroke-miterlimit:10;" points="233.904,56.837 291.571,173.683 
		420.518,192.421 327.211,283.373 349.238,411.799 233.904,351.164 118.57,411.799 140.597,283.373 47.289,192.421 176.237,173.683 
			"/>
</g>
</svg>
