<?xml version="1.0" encoding="iso-8859-1"?>
<!-- Generator: Adobe Illustrator 19.1.0, SVG Export Plug-In . SVG Version: 6.00 Build 0)  -->
<svg version="1.1" id="Layer_1" xmlns="http://www.w3.org/2000/svg" xmlns:xlink="http://www.w3.org/1999/xlink" x="0px" y="0px"
	 viewBox="0 0 302.849 333.847" style="enable-background:new 0 0 302.849 333.847;" xml:space="preserve">
<path style="fill:#294C5D;" d="M134.574,260.811l-31.346,29.916c-4.047,3.862-10.459,3.713-14.322-0.334L2.802,200.171
	c-3.862-4.047-3.713-10.459,0.334-14.322l31.346-29.916c4.047-3.862,10.459-3.713,14.322,0.334l86.105,90.222
	C138.771,250.537,138.621,256.949,134.574,260.811z"/>
<path style="fill:#294C5D;" d="M156.099,296.174l-38.552-19.781c-4.977-2.554-6.942-8.659-4.388-13.637L245.153,5.507
	c2.554-4.977,8.659-6.942,13.637-4.388L297.341,20.9c4.977,2.554,6.942,8.659,4.388,13.637L169.735,291.786
	C167.181,296.763,161.076,298.728,156.099,296.174z"/>
<circle style="fill:#FFFFFF;stroke:#000000;stroke-width:16;stroke-miterlimit:10;" cx="136.451" cy="274.589" r="51.258"/>
</svg>
