<?xml version="1.0" encoding="iso-8859-1"?>
<!-- Generator: Adobe Illustrator 19.1.0, SVG Export Plug-In . SVG Version: 6.00 Build 0)  -->
<svg version="1.1" xmlns="http://www.w3.org/2000/svg" xmlns:xlink="http://www.w3.org/1999/xlink" x="0px" y="0px"
	 viewBox="0 0 416.208 395.838" style="enable-background:new 0 0 416.208 395.838;" xml:space="preserve">
<g id="blackfull" style="display:none;">
	<polygon style="display:inline;fill:#082534;stroke:#082534;stroke-width:10;stroke-miterlimit:10;" points="316.174,366.688 
		207.883,309.358 99.264,366.066 120.324,245.358 32.827,159.58 154.134,142.308 208.677,32.586 262.589,142.619 383.795,160.586 
		295.808,245.862 	"/>
</g>
<g id="quarter_full">
	<path style="fill:#E2CD97;stroke:#E2CD97;stroke-miterlimit:10;" d="M153.534,340.789V142.092c0-0.557,0.079-1.063,0.216-1.524
		l-0.588,1.192L29.534,159.724l89.458,87.2L97.873,370.051L153.534,340.789z"/>
</g>
<g id="half_full">
	<polygon style="fill:#E2CD97;stroke:#E2CD97;stroke-miterlimit:10;" points="208.104,312.067 208.104,28.166 153.221,139.371 
		28.151,157.545 118.653,245.762 97.288,370.327 	"/>
</g>
<g id="three_quarter_full">
	<path style="fill:#E2CD97;stroke:#E2CD97;stroke-miterlimit:10;" d="M262.867,141.425c0-0.432,0.048-0.833,0.132-1.207
		L208.536,29.864L153.263,141.86L29.669,159.82l89.434,87.177L97.99,370.092l110.546-58.118l54.33,28.563V141.425z"/>
</g>
<g id="Layer_6" style="display:none;">
	<polygon style="display:inline;fill:#E2CD97;stroke:#E2CD97;stroke-miterlimit:10;" points="207.77,28.862 263.419,141.619 
		387.855,159.701 297.812,247.47 319.068,371.403 207.77,312.89 96.472,371.403 117.728,247.47 27.686,159.701 152.121,141.619 	"/>
</g>
<g id="outline2">
	<polygon style="fill:none;stroke:#082534;stroke-width:20;stroke-miterlimit:10;" points="208.104,22.596 265.771,139.442 
		394.719,158.179 301.411,249.131 323.438,377.558 208.104,316.923 92.77,377.558 114.797,249.131 21.49,158.179 150.437,139.442 	
		"/>
</g>
</svg>
