<?xml version="1.0" encoding="iso-8859-1"?>
<!-- Generator: Adobe Illustrator 19.1.0, SVG Export Plug-In . SVG Version: 6.00 Build 0)  -->
<svg version="1.1" id="Layer_1" xmlns="http://www.w3.org/2000/svg" xmlns:xlink="http://www.w3.org/1999/xlink" x="0px" y="0px"
	 viewBox="0 0 480 480" style="enable-background:new 0 0 480 480;" xml:space="preserve">
<path style="fill:#294C5D;" d="M372.316,381.469H107.153C75.169,381.469,49,355.3,49,323.316V58.153C49,26.169,75.169,0,107.153,0
	h265.163c31.984,0,58.153,26.169,58.153,58.153v265.163C430.469,355.3,404.3,381.469,372.316,381.469z"/>
<path style="fill:#E2CD97;" d="M235.421,219.808H108.002c-3.146,0-5.721-2.574-5.721-5.721V92.523c0-3.146,2.574-5.721,5.721-5.721
	h127.419c3.146,0,5.721,2.574,5.721,5.721v121.565C241.142,217.234,238.568,219.808,235.421,219.808z"/>
<circle style="fill:#E2CD97;" cx="102.161" cy="303.163" r="35.368"/>
<circle style="fill:#E2CD97;" cx="385.805" cy="303.163" r="35.368"/>
<path style="fill:#E2A797;" d="M328.378,63.402H159.767c-6.6,0-12-5.4-12-12v-8.01c0-6.6,5.4-12,12-12h168.611c6.6,0,12,5.4,12,12
	v8.01C340.378,58.002,334.978,63.402,328.378,63.402z"/>
<path style="fill:#E2CD97;" d="M380.143,219.808H252.723c-3.146,0-5.721-2.574-5.721-5.721V92.523c0-3.146,2.574-5.721,5.721-5.721
	h127.419c3.146,0,5.721,2.574,5.721,5.721v121.565C385.864,217.234,383.289,219.808,380.143,219.808z"/>
<rect x="77.022" y="361.964" transform="matrix(-0.9123 -0.4095 0.4095 -0.9123 3.6075 861.4066)" style="fill:#294C5D;" width="34.01" height="136.707"/>
<rect x="376.934" y="365.964" transform="matrix(0.9123 -0.4095 0.4095 0.9123 -143.3005 199.3856)" style="fill:#294C5D;" width="34.01" height="136.707"/>
<rect x="102.161" y="399.195" style="fill:#294C5D;" width="281.505" height="16.944"/>
<rect x="91.667" y="444.251" style="fill:#294C5D;" width="303.669" height="16.944"/>
<path style="fill:#294C5D;" d="M348.333,224.808h-30c-6.6,0-12-5.4-12-12v-47.475c0-6.6,5.4-12,12-12h30c6.6,0,12,5.4,12,12v47.475
	C360.333,219.408,354.933,224.808,348.333,224.808z"/>
<circle style="fill:#294C5D;" cx="332.586" cy="134.152" r="19.152"/>
</svg>
